<svg width="253" height="253" viewBox="0 0 253 253" fill="none" xmlns="http://www.w3.org/2000/svg">
<circle cx="126.5" cy="126.5" r="126.5" fill="#2B8737"/>
<mask id="path-2-outside-1_508_2829" maskUnits="userSpaceOnUse" x="36.687" y="69.6507" width="179.597" height="133.869" fill="black">
<rect fill="white" x="36.687" y="69.6507" width="179.597" height="133.869"/>
<path fill-rule="evenodd" clip-rule="evenodd" d="M112.819 168.083L61.3177 120.053C57.1604 116.176 50.8542 116.585 47.2322 120.966C43.6103 125.347 44.0443 132.042 48.2016 135.919L106.664 190.441C108.886 192.513 111.722 193.361 114.434 193.032C117.167 193.009 119.872 191.802 121.809 189.459L201.352 93.239C204.974 88.8577 204.54 82.163 200.383 78.286C196.225 74.409 189.919 74.8178 186.297 79.1991L112.819 168.083Z"/>
</mask>
<path fill-rule="evenodd" clip-rule="evenodd" d="M112.819 168.083L61.3177 120.053C57.1604 116.176 50.8542 116.585 47.2322 120.966C43.6103 125.347 44.0443 132.042 48.2016 135.919L106.664 190.441C108.886 192.513 111.722 193.361 114.434 193.032C117.167 193.009 119.872 191.802 121.809 189.459L201.352 93.239C204.974 88.8577 204.54 82.163 200.383 78.286C196.225 74.409 189.919 74.8178 186.297 79.1991L112.819 168.083Z" fill="white"/>
<path d="M61.3177 120.053L57.9076 123.71L61.3177 120.053ZM112.819 168.083L109.409 171.739L113.291 175.359L116.673 171.268L112.819 168.083ZM47.2322 120.966L51.0859 124.152L51.0859 124.152L47.2322 120.966ZM48.2016 135.919L44.7914 139.576L44.7914 139.576L48.2016 135.919ZM106.664 190.441L110.074 186.784L110.074 186.784L106.664 190.441ZM114.434 193.032L114.392 188.032L114.111 188.035L113.833 188.068L114.434 193.032ZM121.809 189.459L117.955 186.273L117.955 186.273L121.809 189.459ZM201.352 93.239L205.206 96.4247L205.206 96.4247L201.352 93.239ZM200.383 78.286L196.973 81.9426L196.973 81.9426L200.383 78.286ZM186.297 79.1991L182.444 76.0133L182.444 76.0133L186.297 79.1991ZM57.9076 123.71L109.409 171.739L116.229 164.426L64.7278 116.396L57.9076 123.71ZM51.0859 124.152C52.8736 121.989 55.8557 121.796 57.9076 123.71L64.7278 116.396C58.4652 110.556 48.8347 111.18 43.3785 117.78L51.0859 124.152ZM51.6117 132.262C49.3892 130.19 49.1496 126.494 51.0859 124.152L43.3786 117.78C38.071 124.201 38.6994 133.894 44.7914 139.576L51.6117 132.262ZM110.074 186.784L51.6117 132.262L44.7914 139.576L103.254 194.097L110.074 186.784ZM113.833 188.068C112.575 188.221 111.21 187.843 110.074 186.784L103.254 194.097C106.563 197.183 110.869 198.501 115.036 197.996L113.833 188.068ZM114.476 198.032C118.675 197.997 122.779 196.133 125.663 192.645L117.955 186.273C116.965 187.471 115.66 188.022 114.392 188.032L114.476 198.032ZM125.663 192.645L205.206 96.4247L197.498 90.0532L117.955 186.273L125.663 192.645ZM205.206 96.4247C210.513 90.0044 209.885 80.3107 203.793 74.6294L196.973 81.9426C199.195 84.0154 199.435 87.7109 197.498 90.0532L205.206 96.4247ZM203.793 74.6294C197.53 68.7889 187.9 69.4133 182.444 76.0133L190.151 82.3849C191.939 80.2224 194.921 80.029 196.973 81.9426L203.793 74.6294ZM182.444 76.0133L108.966 164.897L116.673 171.268L190.151 82.3849L182.444 76.0133Z" fill="white" mask="url(#path-2-outside-1_508_2829)"/>
</svg>
