<svg width="253" height="253" viewBox="0 0 253 253" fill="none" xmlns="http://www.w3.org/2000/svg">
<circle cx="126.5" cy="126.5" r="126.5" fill="#0CD4D4"/>
<path d="M170.924 98.5938C170.924 102.047 170.293 105.201 169.031 108.057C167.836 110.912 166.275 113.535 164.35 115.926C162.424 118.316 160.266 120.508 157.875 122.5C155.551 124.492 153.26 126.318 151.002 127.979C148.811 129.639 146.752 131.199 144.826 132.66C142.967 134.055 141.572 135.383 140.643 136.645C140.244 137.176 139.779 138.006 139.248 139.135C138.717 140.197 138.451 141.426 138.451 142.82C138.451 146.406 137.322 149.361 135.064 151.686C132.873 154.01 129.42 155.172 124.705 155.172C121.85 155.172 119.492 154.74 117.633 153.877C115.84 152.947 114.379 151.818 113.25 150.49C112.188 149.162 111.424 147.734 110.959 146.207C110.561 144.68 110.361 143.285 110.361 142.023C110.361 137.508 111.125 133.723 112.652 130.668C114.18 127.613 116.105 124.99 118.43 122.799C120.754 120.541 123.244 118.582 125.9 116.922C128.557 115.262 131.047 113.535 133.371 111.742C135.695 109.949 137.621 107.957 139.148 105.766C140.676 103.508 141.439 100.719 141.439 97.3984C141.439 93.9453 140.842 91.2227 139.646 89.2305C138.518 87.2383 137.09 85.7773 135.363 84.8477C133.703 83.8516 131.943 83.2539 130.084 83.0547C128.291 82.7891 126.764 82.6562 125.502 82.6562C122.182 82.6562 119.525 83.1543 117.533 84.1504C115.541 85.0801 114.014 86.2754 112.951 87.7363C111.955 89.1973 111.291 90.8242 110.959 92.6172C110.693 94.3437 110.561 96.0039 110.561 97.5977C110.561 100.188 110.062 102.412 109.066 104.271C108.07 106.064 106.809 107.525 105.281 108.654C103.82 109.783 102.193 110.613 100.4 111.145C98.6738 111.676 97.0801 111.941 95.6191 111.941C91.1035 111.941 87.4512 110.713 84.6621 108.256C81.873 105.732 80.4785 102.512 80.4785 98.5938C80.4785 96.8672 80.6777 94.6426 81.0762 91.9199C81.4746 89.1973 82.2383 86.3086 83.3672 83.2539C84.4961 80.1992 86.0898 77.1445 88.1484 74.0898C90.207 71.0352 92.8965 68.2793 96.2168 65.8223C99.5371 63.3652 103.588 61.373 108.369 59.8457C113.15 58.3184 118.861 57.5547 125.502 57.5547C133.006 57.5547 139.58 58.584 145.225 60.6426C150.936 62.6348 155.684 65.457 159.469 69.1094C163.254 72.6953 166.109 77.0117 168.035 82.0586C169.961 87.0391 170.924 92.5508 170.924 98.5938ZM141.838 182.465C141.838 188.109 140.41 192.293 137.555 195.016C134.699 197.672 130.682 199 125.502 199C120.189 199 116.105 197.672 113.25 195.016C110.395 192.293 108.967 188.109 108.967 182.465C108.967 176.754 110.395 172.604 113.25 170.014C116.105 167.424 120.189 166.129 125.502 166.129C131.014 166.129 135.098 167.424 137.754 170.014C140.477 172.604 141.838 176.754 141.838 182.465Z" fill="white"/>
</svg>
