<svg width="253" height="253" viewBox="0 0 253 253" fill="none" xmlns="http://www.w3.org/2000/svg">
<circle cx="126.5" cy="126.5" r="126.5" fill="#B2151B"/>
<mask id="path-2-outside-1_508_2830" maskUnits="userSpaceOnUse" x="64.9359" y="65.9316" width="123" height="123" fill="black">
<rect fill="white" x="64.9359" y="65.9316" width="123" height="123"/>
<path fill-rule="evenodd" clip-rule="evenodd" d="M163.912 179.892C168.05 184.03 174.759 184.03 178.897 179.892C183.034 175.755 183.034 169.046 178.897 164.908L140.952 126.964L178.897 89.0196C183.034 84.8818 183.034 78.173 178.897 74.0352C174.759 69.8974 168.05 69.8974 163.912 74.0352L125.968 111.979L88.0237 74.035C83.8858 69.8972 77.1771 69.8972 73.0393 74.035C68.9015 78.1728 68.9015 84.8815 73.0393 89.0194L110.984 126.964L73.0393 164.908C68.9015 169.046 68.9015 175.755 73.0393 179.893C77.1771 184.03 83.8859 184.03 88.0237 179.893L125.968 141.948L163.912 179.892Z"/>
</mask>
<path fill-rule="evenodd" clip-rule="evenodd" d="M163.912 179.892C168.05 184.03 174.759 184.03 178.897 179.892C183.034 175.755 183.034 169.046 178.897 164.908L140.952 126.964L178.897 89.0196C183.034 84.8818 183.034 78.173 178.897 74.0352C174.759 69.8974 168.05 69.8974 163.912 74.0352L125.968 111.979L88.0237 74.035C83.8858 69.8972 77.1771 69.8972 73.0393 74.035C68.9015 78.1728 68.9015 84.8815 73.0393 89.0194L110.984 126.964L73.0393 164.908C68.9015 169.046 68.9015 175.755 73.0393 179.893C77.1771 184.03 83.8859 184.03 88.0237 179.893L125.968 141.948L163.912 179.892Z" fill="white"/>
<path d="M178.897 179.892L182.432 183.428L182.432 183.428L178.897 179.892ZM163.912 179.892L160.377 183.428L160.377 183.428L163.912 179.892ZM140.952 126.964L137.417 123.428L133.881 126.964L137.417 130.499L140.952 126.964ZM178.897 89.0196L175.361 85.484L175.361 85.484L178.897 89.0196ZM178.897 74.0352L182.432 70.4997L182.432 70.4997L178.897 74.0352ZM163.912 74.0352L160.377 70.4997L160.377 70.4997L163.912 74.0352ZM125.968 111.979L122.433 115.515L125.968 119.05L129.504 115.515L125.968 111.979ZM88.0237 74.035L91.5592 70.4995L91.5592 70.4995L88.0237 74.035ZM73.0393 74.035L69.5037 70.4995L69.5037 70.4995L73.0393 74.035ZM73.0393 89.0194L76.5748 85.4838L76.5748 85.4838L73.0393 89.0194ZM110.984 126.964L114.519 130.499L118.055 126.964L114.519 123.428L110.984 126.964ZM73.0393 164.908L76.5748 168.444L76.5748 168.444L73.0393 164.908ZM73.0393 179.893L76.5748 176.357L76.5748 176.357L73.0393 179.893ZM88.0237 179.893L91.5592 183.428L91.5592 183.428L88.0237 179.893ZM125.968 141.948L129.504 138.413L125.968 134.877L122.433 138.413L125.968 141.948ZM175.361 176.357C173.176 178.542 169.633 178.542 167.448 176.357L160.377 183.428C166.467 189.518 176.342 189.518 182.432 183.428L175.361 176.357ZM175.361 168.444C177.546 170.629 177.546 174.172 175.361 176.357L182.432 183.428C188.523 177.337 188.523 167.463 182.432 161.372L175.361 168.444ZM137.417 130.499L175.361 168.444L182.432 161.372L144.488 123.428L137.417 130.499ZM144.488 130.499L182.432 92.5551L175.361 85.484L137.417 123.428L144.488 130.499ZM182.432 92.5551C188.523 86.4647 188.523 76.5901 182.432 70.4997L175.361 77.5707C177.546 79.756 177.546 83.2989 175.361 85.484L182.432 92.5551ZM182.432 70.4997C176.342 64.4092 166.467 64.4092 160.377 70.4997L167.448 77.5708C169.633 75.3856 173.176 75.3856 175.361 77.5708L182.432 70.4997ZM160.377 70.4997L122.433 108.444L129.504 115.515L167.448 77.5708L160.377 70.4997ZM84.4881 77.5705L122.433 115.515L129.504 108.444L91.5592 70.4995L84.4881 77.5705ZM76.5748 77.5705C78.76 75.3853 82.3029 75.3853 84.4881 77.5705L91.5592 70.4995C85.4687 64.409 75.5942 64.409 69.5037 70.4995L76.5748 77.5705ZM76.5748 85.4838C74.3896 83.2986 74.3896 79.7558 76.5748 77.5705L69.5037 70.4995C63.4133 76.5899 63.4133 86.4644 69.5037 92.5549L76.5748 85.4838ZM114.519 123.428L76.5748 85.4838L69.5037 92.5549L107.448 130.499L114.519 123.428ZM107.448 123.428L69.5038 161.373L76.5748 168.444L114.519 130.499L107.448 123.428ZM69.5038 161.373C63.4133 167.463 63.4133 177.338 69.5038 183.428L76.5748 176.357C74.3896 174.172 74.3896 170.629 76.5748 168.444L69.5038 161.373ZM69.5038 183.428C75.5942 189.519 85.4688 189.519 91.5592 183.428L84.4881 176.357C82.3029 178.542 78.76 178.542 76.5748 176.357L69.5038 183.428ZM91.5592 183.428L129.504 145.484L122.433 138.413L84.4881 176.357L91.5592 183.428ZM167.448 176.357L129.504 138.413L122.433 145.484L160.377 183.428L167.448 176.357Z" fill="white" mask="url(#path-2-outside-1_508_2830)"/>
</svg>
